# This file uses centimeters as units for non-parametric coordinates.

mtllib ChineseFanPalm_Beard.mtl
g default
v -0.620157 -0.068178 1.006506
v 0.034382 -0.052920 1.182987
v 0.728794 -0.076025 0.901449
v -0.627551 -0.045541 0.543156
v 0.000000 0.158089 0.556424
v 0.711622 -0.061302 0.444632
v -0.468578 -0.035975 0.324380
v -0.178113 -0.026283 -0.048572
v 0.377362 -0.029914 -0.066670
vt 0.153163 0.262078
vt 0.525486 0.166777
vt 0.839949 0.306325
vt 0.180392 0.500000
vt 0.491450 0.500000
vt 0.819527 0.564669
vt 0.249770 0.609735
vt 0.382176 0.773646
vt 0.645943 0.778765
vn -0.194949 0.957467 0.212726
vn 0.011797 0.978615 0.205362
vn -0.031416 0.999504 0.002223
vn -0.249388 0.968346 0.010615
vn 0.218032 0.957443 0.189117
vn 0.187608 0.982224 -0.006260
vn -0.073399 0.976693 -0.201703
vn -0.292871 0.936684 -0.191962
vn 0.149733 0.968000 -0.201387
s 1
g pPlane1
usemtl initialShadingGroup
f 1/1/1 2/2/2 5/5/3 4/4/4
f 2/2/2 3/3/5 6/6/6 5/5/3
f 4/4/4 5/5/3 8/8/7 7/7/8
f 5/5/3 6/6/6 9/9/9 8/8/7
