v -1.7692 -0.372386 4.4055
vn 0.010366 -0.891449 0.453003
vt 0.844686 0.887841
v -1.74676 -0.31344 3.87378
vn -0.75682 -0.57294 -0.314583
vt 0.840464 0.78932
v -1.60308 -0.366307 3.61901
vn -0.753638 -0.601391 -0.265251
vt 0.812295 0.743197
v -1.51038 -0.49004 4.11071
vn 0.216135 -0.883505 0.415578
vt 0.793884 0.835222
v -1.28771 -0.581478 3.78555
vn 0.26307 -0.878109 0.399649
vt 0.750206 0.776675
v -1.21809 -0.485377 2.77116
vn -0.75692 -0.602242 -0.253726
vt 0.73688 0.588941
v -1.03316 -0.68807 3.38196
vn 0.116644 -0.926108 0.358774
vt 0.700285 0.703918
v -0.853005 -0.590609 1.91554
vn -0.704833 -0.634244 -0.317718
vt 0.665379 0.433072
v -0.588998 -0.869097 2.76161
vn 0.142508 -0.904424 0.40213
vt 0.613145 0.592298
v -0.523216 -0.555678 1.21665
vn -0.706129 -0.596007 -0.382305
vt 0.60077 0.304069
v -0.377195 -0.982049 2.47007
vn 0.185047 -0.941694 0.281015
vt 0.571591 0.54023
v -0.313637 -0.136406 -0.365006
vn -0.74167 -0.643719 -0.188549
vt 0.560129 0.007586
v -0.162638 -0.978035 2.14706
vn -0.096452 -0.989359 -0.108931
vt 0.529509 0.480755
v -0.100669 -0.32668 -0.377001
vn -0.018451 -0.955157 -0.295524
vt 0.518242 0.00795
v -0.017611 -0.946488 1.91949
vn 0.026238 -0.999655 -0.000906
vt 0.501068 0.438459
v 0.014124 -0.869348 1.21056
vn 0.041423 -0.951606 -0.304517
vt 0.495082 0.307123
v 0.656229 -0.785319 2.61092
vn -0.006576 -0.959157 0.282799
vt 0.368297 0.563048
v 0.76656 0.122773 0.732425
vn 0.885944 0.429434 0.175185
vt 0.347295 0.205286
v 0.902662 -0.529057 1.88397
vn 0.701375 -0.655081 -0.280966
vt 0.320098 0.425853
v 0.999387 0.619613 -0.317361
vn 0.644592 -0.736377 -0.20555
vt 0.301893 0.005444
v 1.06302 -0.524083 2.52022
vn 0.723852 -0.669172 -0.168067
vt 0.288331 0.542634
v 1.12791 -0.620997 3.47533
vn -0.352471 -0.840777 0.410923
vt 0.275225 0.719445
v 1.29014 -0.485422 3.22
vn 0.725049 -0.656089 -0.209406
vt 0.243414 0.670599
v 1.40601 -0.535937 4.06836
vn -0.45815 -0.803933 0.379197
vt 0.220319 0.827137
v 1.49632 -0.4274 3.69493
vn 0.723385 -0.642036 -0.253975
vt 0.202694 0.756994
v 1.75832 -0.366806 4.39032
vn 0.40509 -0.883348 0.235795
vt 0.150918 0.883839
f 25/25/25 26/26/26 24/24/24
f 18/18/18 19/19/19 16/16/16
f 16/16/16 19/19/19 15/15/15
f 15/15/15 19/19/19 17/17/17
f 8/8/8 9/9/9 6/6/6
f 6/6/6 9/9/9 7/7/7
f 23/23/23 25/25/25 22/22/22
f 24/24/24 22/22/22 25/25/25
f 21/21/21 23/23/23 17/17/17
f 22/22/22 17/17/17 23/23/23
f 17/17/17 19/19/19 21/21/21
f 16/16/16 14/14/14 18/18/18
f 20/20/20 18/18/18 14/14/14
f 5/5/5 3/3/3 7/7/7
f 6/6/6 7/7/7 3/3/3
f 5/5/5 4/4/4 2/2/2
f 5/5/5 2/2/2 3/3/3
f 4/4/4 1/1/1 2/2/2
f 10/10/10 12/12/12 16/16/16
f 16/16/16 12/12/12 14/14/14
f 11/11/11 9/9/9 8/8/8
f 11/11/11 8/8/8 15/15/15
f 13/13/13 11/11/11 15/15/15
f 16/16/16 15/15/15 10/10/10
f 15/15/15 8/8/8 10/10/10
